<svg width="1440" height="274" viewBox="0 0 1440 274" fill="none" xmlns="http://www.w3.org/2000/svg">
<rect width="1440" height="274" fill="black"/>
<path d="M47.2195 39.8H72.6195C83.6195 39.8 92.2195 43 98.6195 49.3C104.82 55.7 107.92 64.4 107.92 75.4C107.92 86.5 104.82 95.2 98.6195 101.5C92.2195 107.9 83.6195 111 72.6195 111H47.2195V39.8ZM57.9195 101.6H72.5195C80.3195 101.6 86.2195 99.4 90.4195 94.8C94.6195 90.3 96.7195 83.8 96.7195 75.4C96.7195 67 94.6195 60.6 90.4195 56C86.2195 51.5 80.3195 49.2 72.5195 49.2H57.9195V101.6ZM162.825 85.6V88.5H123.925C124.325 93.6 125.825 97.4 128.425 100C130.925 102.6 134.325 103.8 138.725 103.8C145.225 103.8 149.525 101 151.525 95.2H161.625C160.225 100.5 157.425 104.7 153.425 107.7C149.425 110.7 144.425 112.2 138.525 112.2C131.125 112.2 125.125 109.8 120.625 104.8C116.025 99.9 113.825 93.4 113.825 85.2C113.825 77.1 116.025 70.6 120.625 65.6C125.125 60.7 131.025 58.2 138.325 58.2C145.925 58.2 151.925 60.8 156.325 65.9C160.625 71.1 162.825 77.6 162.825 85.6ZM138.325 66.6C134.325 66.6 131.125 67.8 128.625 70.2C126.125 72.6 124.625 76.1 124.025 80.6H152.525C152.025 76.4 150.525 73.1 148.025 70.5C145.525 67.9 142.325 66.6 138.325 66.6ZM197.494 58.2C204.694 58.2 210.394 60.7 214.694 65.5C218.894 70.4 221.094 77 221.094 85.2C221.094 93.4 218.894 100 214.694 104.8C210.294 109.8 204.594 112.2 197.494 112.2C189.894 112.2 184.094 109.2 180.294 103.2V111H170.694V39.8H180.694V66.6C184.494 61 190.094 58.2 197.494 58.2ZM184.594 98.7C187.194 102 190.894 103.6 195.594 103.6C200.194 103.6 203.894 102 206.694 98.6C209.294 95.4 210.694 90.8 210.694 84.8C210.694 79.1 209.294 74.7 206.694 71.5C203.994 68.4 200.294 66.8 195.594 66.8C190.994 66.8 187.294 68.4 184.594 71.6C181.794 75 180.494 79.5 180.494 85.2C180.494 91 181.794 95.5 184.594 98.7ZM270.573 104.8C265.773 109.8 259.673 112.2 252.073 112.2C244.473 112.2 238.273 109.8 233.573 104.8C228.773 99.9 226.473 93.4 226.473 85.2C226.473 77 228.773 70.5 233.573 65.5C238.173 60.7 244.373 58.2 252.073 58.2C259.673 58.2 265.873 60.7 270.573 65.5C275.173 70.4 277.573 77 277.573 85.2C277.573 93.4 275.173 100 270.573 104.8ZM252.073 103.6C256.673 103.6 260.373 102 263.073 98.7C265.773 95.5 267.173 91 267.173 85.2C267.173 79.5 265.773 75 263.073 71.7C260.373 68.5 256.673 66.8 252.073 66.8C247.373 66.8 243.673 68.5 240.973 71.7C238.173 75 236.873 79.5 236.873 85.2C236.873 91 238.173 95.5 240.973 98.7C243.673 102 247.373 103.6 252.073 103.6ZM294.791 50.8C293.591 52 292.091 52.6 290.491 52.6C288.791 52.6 287.391 52 286.191 50.8C284.991 49.6 284.391 48.2 284.391 46.5C284.391 44.9 284.991 43.4 286.191 42.2C287.391 41 288.791 40.4 290.491 40.4C292.091 40.4 293.591 41 294.791 42.2C295.991 43.4 296.591 44.9 296.591 46.5C296.591 48.2 295.991 49.6 294.791 50.8ZM282.191 130.9C279.791 130.9 278.291 130.9 277.691 130.8V122.5H280.591C283.791 122.5 285.491 121.1 285.491 118.1V59.4H295.491V119.1C295.491 127 290.991 130.9 282.191 130.9ZM332.394 77.1L338.394 59.4H348.994L327.994 117.5C326.194 122.5 323.894 125.9 321.094 127.9C318.194 129.9 314.094 130.9 308.894 130.9C307.094 130.9 305.294 130.8 303.694 130.6V122.5H308.694C313.094 122.5 316.094 120.5 317.694 116.3C317.794 115.9 317.994 115.3 318.294 114.4C318.594 113.6 318.894 112.9 319.094 112.4L299.994 59.4H310.894L316.894 77.1C320.094 87 322.594 95.2 324.594 101.8C327.194 93.4 329.794 85.1 332.394 77.1ZM392.866 104.8C388.066 109.8 381.966 112.2 374.366 112.2C366.766 112.2 360.566 109.8 355.866 104.8C351.066 99.9 348.766 93.4 348.766 85.2C348.766 77 351.066 70.5 355.866 65.5C360.466 60.7 366.666 58.2 374.366 58.2C381.966 58.2 388.166 60.7 392.866 65.5C397.466 70.4 399.866 77 399.866 85.2C399.866 93.4 397.466 100 392.866 104.8ZM374.366 103.6C378.966 103.6 382.666 102 385.366 98.7C388.066 95.5 389.466 91 389.466 85.2C389.466 79.5 388.066 75 385.366 71.7C382.666 68.5 378.966 66.8 374.366 66.8C369.666 66.8 365.966 68.5 363.266 71.7C360.466 75 359.166 79.5 359.166 85.2C359.166 91 360.466 95.5 363.266 98.7C365.966 102 369.666 103.6 374.366 103.6ZM429.354 59.4V67.6H418.954V98.6C418.954 100.2 419.354 101.3 420.254 102C421.154 102.7 422.654 103 424.854 103H429.354V111C427.154 111.2 425.054 111.3 423.254 111.3C418.354 111.3 414.754 110.4 412.454 108.5C410.054 106.7 408.954 103.7 408.954 99.5V67.6H400.654V59.4H408.954V44.6H418.954V59.4H429.354ZM445.673 50.8C444.473 52 442.973 52.6 441.373 52.6C439.673 52.6 438.273 52 437.073 50.8C435.873 49.6 435.273 48.2 435.273 46.5C435.273 44.9 435.873 43.4 437.073 42.2C438.273 41 439.673 40.4 441.373 40.4C442.973 40.4 444.473 41 445.673 42.2C446.873 43.4 447.473 44.9 447.473 46.5C447.473 48.2 446.873 49.6 445.673 50.8ZM446.373 111H436.373V59.4H446.373V111ZM520.48 76.7L534.58 39.8H549.48V111H539.18V88.7C539.18 72.7 539.28 60.6 539.58 52.6C538.18 56.9 536.18 62.4 533.58 69.1L517.48 111H508.48L492.18 69.1C489.98 63.3 487.98 57.9 486.28 52.9C486.48 60.9 486.68 72.8 486.68 88.7V111H476.38V39.8H491.18L505.78 77.7C508.78 85.6 511.18 92.3 513.08 97.8C515.28 91.2 517.68 84.2 520.48 76.7ZM569.041 50.8C567.841 52 566.341 52.6 564.741 52.6C563.041 52.6 561.641 52 560.441 50.8C559.241 49.6 558.641 48.2 558.641 46.5C558.641 44.9 559.241 43.4 560.441 42.2C561.641 41 563.041 40.4 564.741 40.4C566.341 40.4 567.841 41 569.041 42.2C570.241 43.4 570.841 44.9 570.841 46.5C570.841 48.2 570.241 49.6 569.041 50.8ZM569.741 111H559.741V59.4H569.741V111ZM599.032 112.3C584.632 112.3 577.132 106.4 576.432 94.6H586.432C586.832 98.2 587.932 100.8 589.932 102.2C591.832 103.7 594.932 104.4 599.132 104.4C606.732 104.4 610.532 102 610.532 97.2C610.532 95.2 609.732 93.6 608.132 92.4C606.532 91.3 603.632 90.4 599.532 89.6L594.232 88.6C583.232 86.6 577.832 81.5 577.832 73.2C577.832 68.6 579.532 65 583.132 62.3C586.632 59.6 591.532 58.2 597.732 58.2C611.932 58.2 619.132 64 619.532 75.5H609.832C609.632 72.1 608.532 69.6 606.632 68.2C604.632 66.8 601.732 66 597.732 66C594.532 66 592.032 66.6 590.332 67.8C588.532 69 587.732 70.7 587.732 72.9C587.732 74.9 588.432 76.5 590.032 77.6C591.532 78.7 593.932 79.6 597.332 80.2L602.732 81.1C609.032 82.3 613.632 84.1 616.432 86.5C619.232 88.9 620.632 92.3 620.632 96.5C620.632 101.5 618.732 105.4 614.932 108.2C611.132 111 605.832 112.3 599.032 112.3ZM652.877 58.2C658.477 58.2 662.977 59.8 666.177 63C669.377 66.2 670.977 70.6 670.977 76.4V111H660.977V77.8C660.977 70.6 657.277 67 650.077 67C646.677 67 643.677 68.3 641.077 70.8C638.377 73.4 637.077 77.1 637.077 81.9V111H627.077V39.8H637.077V66.5C640.977 61 646.277 58.2 652.877 58.2ZM706.952 58.6C708.352 58.6 709.352 58.7 709.852 58.7V68.2H707.352C702.152 68.2 698.252 69.5 695.452 72C692.652 74.6 691.252 78.2 691.252 83V111H681.252V59.4H690.852V68.6C694.052 62 699.452 58.6 706.952 58.6ZM757.172 103.3H759.972V111C758.472 111.2 756.872 111.3 755.072 111.3C751.872 111.3 749.472 110.8 747.872 109.6C746.272 108.4 745.372 106.6 745.072 104C741.572 109.5 735.972 112.2 728.272 112.2C722.572 112.2 718.072 110.9 714.772 108.2C711.472 105.5 709.872 101.7 709.872 96.9C709.872 87.6 716.272 82.3 729.272 80.9L736.872 80.1C739.472 79.8 741.472 79.1 742.672 78.1C743.872 77.1 744.572 75.6 744.572 73.6C744.572 71 743.672 69.2 742.072 68C740.472 66.8 737.772 66.2 733.972 66.2C729.772 66.2 726.872 66.9 725.072 68.3C723.272 69.7 722.172 72.1 721.972 75.5H712.072C712.772 64 720.072 58.2 733.972 58.2C747.572 58.2 754.372 63.3 754.372 73.4V100.7C754.372 102.5 755.272 103.3 757.172 103.3ZM729.772 104.4C733.972 104.4 737.572 103.2 740.372 100.8C743.172 98.4 744.572 95 744.572 90.6V85.2C743.272 86.3 741.172 87 738.172 87.3L730.972 88.1C727.072 88.6 724.272 89.5 722.672 90.9C720.972 92.3 720.172 94.2 720.172 96.6C720.172 99.1 720.972 101 722.572 102.4C724.172 103.8 726.572 104.4 729.772 104.4Z" fill="white"/>
<path d="M61.034 215.336V217.448H52.718V221.87H60.22V223.938H52.718V231H50.364V215.336H61.034ZM69.5442 226.05V219.648H71.7442V231H69.6322V229.306C68.7522 230.626 67.5642 231.264 66.0682 231.264C64.8142 231.264 63.8462 230.912 63.1422 230.208C62.4382 229.504 62.0862 228.536 62.0862 227.26V219.648H64.2862V226.952C64.2862 228.536 65.0782 229.328 66.6842 229.328C67.4762 229.328 68.1582 229.042 68.7082 228.47C69.2582 227.898 69.5442 227.084 69.5442 226.05ZM76.2049 231H74.0049V215.336H76.2049V231ZM80.647 231H78.447V215.336H80.647V231ZM93.0784 231.352C91.0104 231.352 89.3824 230.89 88.2384 229.944C87.0944 229.02 86.5004 227.634 86.5004 225.83H88.8544C88.8984 228.184 90.3064 229.35 93.1224 229.35C94.2664 229.35 95.1684 229.13 95.7844 228.69C96.4004 228.25 96.7304 227.59 96.7304 226.732C96.7304 226.05 96.4664 225.522 95.9604 225.148C95.4324 224.774 94.5084 224.444 93.1884 224.136L91.8464 223.85C90.2184 223.542 89.0084 223.014 88.1944 222.266C87.3584 221.54 86.9624 220.528 86.9624 219.23C86.9624 217.954 87.4464 216.92 88.4584 216.15C89.4484 215.38 90.7904 214.984 92.5064 214.984C94.5524 214.984 96.0924 215.424 97.1264 216.304C98.1604 217.184 98.6884 218.394 98.7324 219.934H96.4004C96.3124 218.922 95.9824 218.196 95.3884 217.712C94.7944 217.228 93.8484 216.986 92.5284 216.986C91.4944 216.986 90.7024 217.184 90.1744 217.558C89.6244 217.954 89.3604 218.482 89.3604 219.186C89.3604 219.912 89.6024 220.462 90.0864 220.814C90.5704 221.21 91.4504 221.562 92.7704 221.826L94.1344 222.112C95.9164 222.508 97.1924 223.058 97.9844 223.762C98.7764 224.488 99.1724 225.456 99.1724 226.666C99.1724 228.118 98.6224 229.262 97.5444 230.098C96.4664 230.934 94.9704 231.352 93.0784 231.352ZM105.865 219.648V221.452H103.577V228.272C103.577 228.624 103.665 228.866 103.863 229.02C104.061 229.174 104.391 229.24 104.875 229.24H105.865V231C105.381 231.044 104.919 231.066 104.523 231.066C103.445 231.066 102.653 230.868 102.147 230.45C101.619 230.054 101.377 229.394 101.377 228.47V221.452H99.5505V219.648H101.377V216.392H103.577V219.648H105.865ZM117.091 229.306H117.707V231C117.377 231.044 117.025 231.066 116.629 231.066C115.925 231.066 115.397 230.956 115.045 230.692C114.693 230.428 114.495 230.032 114.429 229.46C113.659 230.67 112.427 231.264 110.733 231.264C109.479 231.264 108.489 230.978 107.763 230.384C107.037 229.79 106.685 228.954 106.685 227.898C106.685 225.852 108.093 224.686 110.953 224.378L112.625 224.202C113.197 224.136 113.637 223.982 113.901 223.762C114.165 223.542 114.319 223.212 114.319 222.772C114.319 222.2 114.121 221.804 113.769 221.54C113.417 221.276 112.823 221.144 111.987 221.144C111.063 221.144 110.425 221.298 110.029 221.606C109.633 221.914 109.391 222.442 109.347 223.19H107.169C107.323 220.66 108.929 219.384 111.987 219.384C114.979 219.384 116.475 220.506 116.475 222.728V228.734C116.475 229.13 116.673 229.306 117.091 229.306ZM111.063 229.548C111.987 229.548 112.779 229.284 113.395 228.756C114.011 228.228 114.319 227.48 114.319 226.512V225.324C114.033 225.566 113.571 225.72 112.911 225.786L111.327 225.962C110.469 226.072 109.853 226.27 109.501 226.578C109.127 226.886 108.951 227.304 108.951 227.832C108.951 228.382 109.127 228.8 109.479 229.108C109.831 229.416 110.359 229.548 111.063 229.548ZM123.717 231.264C122.089 231.264 120.791 230.736 119.801 229.636C118.789 228.558 118.305 227.128 118.305 225.324C118.305 223.52 118.789 222.09 119.801 220.99C120.769 219.934 122.089 219.384 123.717 219.384C125.103 219.384 126.247 219.78 127.149 220.528C128.051 221.298 128.601 222.332 128.777 223.608H126.533C126.379 222.86 126.049 222.288 125.543 221.892C125.037 221.496 124.421 221.298 123.717 221.298C122.749 221.298 122.001 221.65 121.429 222.354C120.857 223.058 120.593 224.048 120.593 225.324C120.593 226.622 120.857 227.612 121.429 228.316C122.001 229.02 122.749 229.35 123.717 229.35C124.443 229.35 125.059 229.152 125.587 228.734C126.093 228.338 126.423 227.744 126.555 226.952H128.799C128.623 228.272 128.073 229.328 127.149 230.098C126.225 230.89 125.081 231.264 123.717 231.264ZM140.509 231H137.979L134.371 225.258L132.479 227.106V231H130.301V215.336H132.479V224.576L137.473 219.648H140.223L135.933 223.828L140.509 231ZM145.977 215.336H151.565C153.985 215.336 155.877 216.04 157.285 217.426C158.649 218.834 159.331 220.748 159.331 223.168C159.331 225.61 158.649 227.524 157.285 228.91C155.877 230.318 153.985 231 151.565 231H145.977V215.336ZM148.331 228.932H151.543C153.259 228.932 154.557 228.448 155.481 227.436C156.405 226.446 156.867 225.016 156.867 223.168C156.867 221.32 156.405 219.912 155.481 218.9C154.557 217.91 153.259 217.404 151.543 217.404H148.331V228.932ZM171.41 225.412V226.05H162.852C162.94 227.172 163.27 228.008 163.842 228.58C164.392 229.152 165.14 229.416 166.108 229.416C167.538 229.416 168.484 228.8 168.924 227.524H171.146C170.838 228.69 170.222 229.614 169.342 230.274C168.462 230.934 167.362 231.264 166.064 231.264C164.436 231.264 163.116 230.736 162.126 229.636C161.114 228.558 160.63 227.128 160.63 225.324C160.63 223.542 161.114 222.112 162.126 221.012C163.116 219.934 164.414 219.384 166.02 219.384C167.692 219.384 169.012 219.956 169.98 221.078C170.926 222.222 171.41 223.652 171.41 225.412ZM166.02 221.232C165.14 221.232 164.436 221.496 163.886 222.024C163.336 222.552 163.006 223.322 162.874 224.312H169.144C169.034 223.388 168.704 222.662 168.154 222.09C167.604 221.518 166.9 221.232 166.02 221.232ZM178.721 223.806L180.239 219.648H182.571L178.215 231H175.773L171.439 219.648H173.815L175.355 223.806C176.389 226.908 176.939 228.602 177.027 228.866C177.071 228.734 177.159 228.426 177.313 227.986C177.445 227.546 177.665 226.952 177.929 226.182C178.193 225.412 178.457 224.62 178.721 223.806ZM193.293 225.412V226.05H184.735C184.823 227.172 185.153 228.008 185.725 228.58C186.275 229.152 187.023 229.416 187.991 229.416C189.421 229.416 190.367 228.8 190.807 227.524H193.029C192.721 228.69 192.105 229.614 191.225 230.274C190.345 230.934 189.245 231.264 187.947 231.264C186.319 231.264 184.999 230.736 184.009 229.636C182.997 228.558 182.513 227.128 182.513 225.324C182.513 223.542 182.997 222.112 184.009 221.012C184.999 219.934 186.297 219.384 187.903 219.384C189.575 219.384 190.895 219.956 191.863 221.078C192.809 222.222 193.293 223.652 193.293 225.412ZM187.903 221.232C187.023 221.232 186.319 221.496 185.769 222.024C185.219 222.552 184.889 223.322 184.757 224.312H191.027C190.917 223.388 190.587 222.662 190.037 222.09C189.487 221.518 188.783 221.232 187.903 221.232ZM197.224 231H195.024V215.336H197.224V231ZM208.64 229.636C207.584 230.736 206.242 231.264 204.57 231.264C202.898 231.264 201.534 230.736 200.5 229.636C199.444 228.558 198.938 227.128 198.938 225.324C198.938 223.52 199.444 222.09 200.5 220.99C201.512 219.934 202.876 219.384 204.57 219.384C206.242 219.384 207.606 219.934 208.64 220.99C209.652 222.068 210.18 223.52 210.18 225.324C210.18 227.128 209.652 228.58 208.64 229.636ZM204.57 229.372C205.582 229.372 206.396 229.02 206.99 228.294C207.584 227.59 207.892 226.6 207.892 225.324C207.892 224.07 207.584 223.08 206.99 222.354C206.396 221.65 205.582 221.276 204.57 221.276C203.536 221.276 202.722 221.65 202.128 222.354C201.512 223.08 201.226 224.07 201.226 225.324C201.226 226.6 201.512 227.59 202.128 228.294C202.722 229.02 203.536 229.372 204.57 229.372ZM217.796 219.384C219.38 219.384 220.634 219.934 221.58 220.99C222.504 222.068 222.988 223.52 222.988 225.324C222.988 227.128 222.504 228.58 221.58 229.636C220.612 230.736 219.358 231.264 217.796 231.264C216.168 231.264 214.936 230.648 214.1 229.416V235.312H211.9V219.648H214.012V221.364C214.848 220.044 216.124 219.384 217.796 219.384ZM214.958 228.294C215.53 229.02 216.344 229.372 217.378 229.372C218.39 229.372 219.204 229.02 219.82 228.272C220.392 227.568 220.7 226.556 220.7 225.236C220.7 223.982 220.392 223.014 219.82 222.31C219.226 221.628 218.412 221.276 217.378 221.276C216.366 221.276 215.552 221.628 214.958 222.332C214.342 223.08 214.056 224.07 214.056 225.324C214.056 226.6 214.342 227.59 214.958 228.294ZM237.108 219.384C238.34 219.384 239.286 219.758 239.99 220.484C240.672 221.21 241.024 222.178 241.024 223.388V231H238.802V223.674C238.802 222.112 238.076 221.32 236.624 221.32C235.832 221.32 235.194 221.628 234.71 222.222C234.204 222.816 233.962 223.674 233.962 224.774V231H231.762V223.674C231.762 222.112 231.014 221.32 229.562 221.32C228.77 221.32 228.132 221.628 227.648 222.222C227.142 222.838 226.9 223.674 226.9 224.774V231H224.7V219.648H226.812V221.342C227.582 220.044 228.682 219.384 230.09 219.384C231.806 219.384 232.972 220.11 233.588 221.518C234.38 220.11 235.568 219.384 237.108 219.384ZM253.509 225.412V226.05H244.951C245.039 227.172 245.369 228.008 245.941 228.58C246.491 229.152 247.239 229.416 248.207 229.416C249.637 229.416 250.583 228.8 251.023 227.524H253.245C252.937 228.69 252.321 229.614 251.441 230.274C250.561 230.934 249.461 231.264 248.163 231.264C246.535 231.264 245.215 230.736 244.225 229.636C243.213 228.558 242.729 227.128 242.729 225.324C242.729 223.542 243.213 222.112 244.225 221.012C245.215 219.934 246.513 219.384 248.119 219.384C249.791 219.384 251.111 219.956 252.079 221.078C253.025 222.222 253.509 223.652 253.509 225.412ZM248.119 221.232C247.239 221.232 246.535 221.496 245.985 222.024C245.435 222.552 245.105 223.322 244.973 224.312H251.243C251.133 223.388 250.803 222.662 250.253 222.09C249.703 221.518 248.999 221.232 248.119 221.232ZM260.916 219.384C262.148 219.384 263.138 219.736 263.842 220.44C264.546 221.144 264.898 222.112 264.898 223.388V231H262.698V223.696C262.698 222.112 261.884 221.32 260.3 221.32C259.552 221.32 258.892 221.606 258.32 222.156C257.726 222.728 257.44 223.542 257.44 224.598V231H255.24V219.648H257.352V221.342C258.21 220.044 259.398 219.384 260.916 219.384ZM272.141 219.648V221.452H269.853V228.272C269.853 228.624 269.941 228.866 270.139 229.02C270.337 229.174 270.667 229.24 271.151 229.24H272.141V231C271.657 231.044 271.195 231.066 270.799 231.066C269.721 231.066 268.929 230.868 268.423 230.45C267.895 230.054 267.653 229.394 267.653 228.47V221.452H265.827V219.648H267.653V216.392H269.853V219.648H272.141Z" fill="white"/>
<path d="M351.096 231.352C348.896 231.352 347.136 230.626 345.772 229.13C344.386 227.678 343.704 225.676 343.704 223.168C343.704 220.682 344.386 218.702 345.75 217.206C347.114 215.732 348.896 214.984 351.096 214.984C352.812 214.984 354.308 215.446 355.562 216.37C356.794 217.316 357.608 218.702 357.96 220.528H355.584C355.276 219.384 354.748 218.526 353.956 217.954C353.164 217.382 352.218 217.074 351.096 217.074C349.578 217.074 348.368 217.624 347.488 218.724C346.586 219.824 346.146 221.298 346.146 223.168C346.146 225.06 346.586 226.534 347.488 227.634C348.368 228.734 349.578 229.262 351.096 229.262C352.218 229.262 353.23 228.932 354.132 228.228C354.99 227.546 355.518 226.534 355.694 225.214H358.048C357.85 227.172 357.102 228.69 355.782 229.746C354.462 230.824 352.9 231.352 351.096 231.352ZM365.658 223.542L366.978 219.648H369.31L364.69 232.43C364.294 233.53 363.788 234.278 363.172 234.718C362.534 235.158 361.632 235.378 360.488 235.378C360.092 235.378 359.696 235.356 359.344 235.312V233.53H360.444C361.412 233.53 362.072 233.09 362.424 232.166C362.446 232.078 362.49 231.946 362.556 231.748C362.622 231.572 362.688 231.418 362.732 231.308L358.53 219.648H360.928L362.248 223.542C362.952 225.72 363.502 227.524 363.942 228.976C364.514 227.128 365.086 225.302 365.658 223.542ZM376.114 219.384C377.698 219.384 378.952 219.934 379.898 220.99C380.822 222.068 381.306 223.52 381.306 225.324C381.306 227.128 380.822 228.58 379.898 229.636C378.93 230.736 377.676 231.264 376.114 231.264C374.442 231.264 373.166 230.604 372.33 229.284V231H370.218V215.336H372.418V221.232C373.254 220 374.486 219.384 376.114 219.384ZM373.276 228.294C373.848 229.02 374.662 229.372 375.696 229.372C376.708 229.372 377.522 229.02 378.138 228.272C378.71 227.568 379.018 226.556 379.018 225.236C379.018 223.982 378.71 223.014 378.138 222.31C377.544 221.628 376.73 221.276 375.696 221.276C374.684 221.276 373.87 221.628 373.276 222.332C372.66 223.08 372.374 224.07 372.374 225.324C372.374 226.6 372.66 227.59 373.276 228.294ZM387.047 231.286C383.879 231.286 382.229 229.988 382.075 227.392H384.275C384.363 228.184 384.605 228.756 385.045 229.064C385.463 229.394 386.145 229.548 387.069 229.548C388.741 229.548 389.577 229.02 389.577 227.964C389.577 227.524 389.401 227.172 389.049 226.908C388.697 226.666 388.059 226.468 387.157 226.292L385.991 226.072C383.571 225.632 382.383 224.51 382.383 222.684C382.383 221.672 382.757 220.88 383.549 220.286C384.319 219.692 385.397 219.384 386.761 219.384C389.885 219.384 391.469 220.66 391.557 223.19H389.423C389.379 222.442 389.137 221.892 388.719 221.584C388.279 221.276 387.641 221.1 386.761 221.1C386.057 221.1 385.507 221.232 385.133 221.496C384.737 221.76 384.561 222.134 384.561 222.618C384.561 223.058 384.715 223.41 385.067 223.652C385.397 223.894 385.925 224.092 386.673 224.224L387.861 224.422C389.247 224.686 390.259 225.082 390.875 225.61C391.491 226.138 391.799 226.886 391.799 227.81C391.799 228.91 391.381 229.768 390.545 230.384C389.709 231 388.543 231.286 387.047 231.286ZM403.469 225.412V226.05H394.911C394.999 227.172 395.329 228.008 395.901 228.58C396.451 229.152 397.199 229.416 398.167 229.416C399.597 229.416 400.543 228.8 400.983 227.524H403.205C402.897 228.69 402.281 229.614 401.401 230.274C400.521 230.934 399.421 231.264 398.123 231.264C396.495 231.264 395.175 230.736 394.185 229.636C393.173 228.558 392.689 227.128 392.689 225.324C392.689 223.542 393.173 222.112 394.185 221.012C395.175 219.934 396.473 219.384 398.079 219.384C399.751 219.384 401.071 219.956 402.039 221.078C402.985 222.222 403.469 223.652 403.469 225.412ZM398.079 221.232C397.199 221.232 396.495 221.496 395.945 222.024C395.395 222.552 395.065 223.322 394.933 224.312H401.203C401.093 223.388 400.763 222.662 400.213 222.09C399.663 221.518 398.959 221.232 398.079 221.232ZM410.854 219.472C411.162 219.472 411.382 219.494 411.492 219.494V221.584H410.942C409.798 221.584 408.94 221.87 408.324 222.42C407.708 222.992 407.4 223.784 407.4 224.84V231H405.2V219.648H407.312V221.672C408.016 220.22 409.204 219.472 410.854 219.472ZM416.702 231.286C413.534 231.286 411.884 229.988 411.73 227.392H413.93C414.018 228.184 414.26 228.756 414.7 229.064C415.118 229.394 415.8 229.548 416.724 229.548C418.396 229.548 419.232 229.02 419.232 227.964C419.232 227.524 419.056 227.172 418.704 226.908C418.352 226.666 417.714 226.468 416.812 226.292L415.646 226.072C413.226 225.632 412.038 224.51 412.038 222.684C412.038 221.672 412.412 220.88 413.204 220.286C413.974 219.692 415.052 219.384 416.416 219.384C419.54 219.384 421.124 220.66 421.212 223.19H419.078C419.034 222.442 418.792 221.892 418.374 221.584C417.934 221.276 417.296 221.1 416.416 221.1C415.712 221.1 415.162 221.232 414.788 221.496C414.392 221.76 414.216 222.134 414.216 222.618C414.216 223.058 414.37 223.41 414.722 223.652C415.052 223.894 415.58 224.092 416.328 224.224L417.516 224.422C418.902 224.686 419.914 225.082 420.53 225.61C421.146 226.138 421.454 226.886 421.454 227.81C421.454 228.91 421.036 229.768 420.2 230.384C419.364 231 418.198 231.286 416.702 231.286ZM433.124 225.412V226.05H424.566C424.654 227.172 424.984 228.008 425.556 228.58C426.106 229.152 426.854 229.416 427.822 229.416C429.252 229.416 430.198 228.8 430.638 227.524H432.86C432.552 228.69 431.936 229.614 431.056 230.274C430.176 230.934 429.076 231.264 427.778 231.264C426.15 231.264 424.83 230.736 423.84 229.636C422.828 228.558 422.344 227.128 422.344 225.324C422.344 223.542 422.828 222.112 423.84 221.012C424.83 219.934 426.128 219.384 427.734 219.384C429.406 219.384 430.726 219.956 431.694 221.078C432.64 222.222 433.124 223.652 433.124 225.412ZM427.734 221.232C426.854 221.232 426.15 221.496 425.6 222.024C425.05 222.552 424.72 223.322 424.588 224.312H430.858C430.748 223.388 430.418 222.662 429.868 222.09C429.318 221.518 428.614 221.232 427.734 221.232ZM439.739 231.264C438.111 231.264 436.813 230.736 435.823 229.636C434.811 228.558 434.327 227.128 434.327 225.324C434.327 223.52 434.811 222.09 435.823 220.99C436.791 219.934 438.111 219.384 439.739 219.384C441.125 219.384 442.269 219.78 443.171 220.528C444.073 221.298 444.623 222.332 444.799 223.608H442.555C442.401 222.86 442.071 222.288 441.565 221.892C441.059 221.496 440.443 221.298 439.739 221.298C438.771 221.298 438.023 221.65 437.451 222.354C436.879 223.058 436.615 224.048 436.615 225.324C436.615 226.622 436.879 227.612 437.451 228.316C438.023 229.02 438.771 229.35 439.739 229.35C440.465 229.35 441.081 229.152 441.609 228.734C442.115 228.338 442.445 227.744 442.577 226.952H444.821C444.645 228.272 444.095 229.328 443.171 230.098C442.247 230.89 441.103 231.264 439.739 231.264ZM453.78 226.05V219.648H455.98V231H453.868V229.306C452.988 230.626 451.8 231.264 450.304 231.264C449.05 231.264 448.082 230.912 447.378 230.208C446.674 229.504 446.322 228.536 446.322 227.26V219.648H448.522V226.952C448.522 228.536 449.314 229.328 450.92 229.328C451.712 229.328 452.394 229.042 452.944 228.47C453.494 227.898 453.78 227.084 453.78 226.05ZM463.895 219.472C464.203 219.472 464.423 219.494 464.533 219.494V221.584H463.983C462.839 221.584 461.981 221.87 461.365 222.42C460.749 222.992 460.441 223.784 460.441 224.84V231H458.241V219.648H460.353V221.672C461.057 220.22 462.245 219.472 463.895 219.472ZM467.952 217.756C467.688 218.02 467.358 218.152 467.006 218.152C466.632 218.152 466.324 218.02 466.06 217.756C465.796 217.492 465.664 217.184 465.664 216.81C465.664 216.458 465.796 216.128 466.06 215.864C466.324 215.6 466.632 215.468 467.006 215.468C467.358 215.468 467.688 215.6 467.952 215.864C468.216 216.128 468.348 216.458 468.348 216.81C468.348 217.184 468.216 217.492 467.952 217.756ZM468.106 231H465.906V219.648H468.106V231ZM475.738 219.648V221.452H473.45V228.272C473.45 228.624 473.538 228.866 473.736 229.02C473.934 229.174 474.264 229.24 474.748 229.24H475.738V231C475.254 231.044 474.792 231.066 474.396 231.066C473.318 231.066 472.526 230.868 472.02 230.45C471.492 230.054 471.25 229.394 471.25 228.47V221.452H469.424V219.648H471.25V216.392H473.45V219.648H475.738ZM483.266 223.542L484.586 219.648H486.918L482.298 232.43C481.902 233.53 481.396 234.278 480.78 234.718C480.142 235.158 479.24 235.378 478.096 235.378C477.7 235.378 477.304 235.356 476.952 235.312V233.53H478.052C479.02 233.53 479.68 233.09 480.032 232.166C480.054 232.078 480.098 231.946 480.164 231.748C480.23 231.572 480.296 231.418 480.34 231.308L476.138 219.648H478.536L479.856 223.542C480.56 225.72 481.11 227.524 481.55 228.976C482.122 227.128 482.694 225.302 483.266 223.542Z" fill="white"/>
<path d="M565.48 231.33C563.478 231.33 561.916 230.802 560.816 229.724C559.694 228.646 559.144 227.128 559.144 225.148V215.336H561.498V225.17C561.498 226.534 561.828 227.546 562.51 228.228C563.192 228.932 564.182 229.262 565.48 229.262C566.756 229.262 567.746 228.932 568.428 228.228C569.11 227.546 569.462 226.534 569.462 225.17V215.336H571.816V225.148C571.816 227.128 571.244 228.646 570.144 229.724C569.022 230.802 567.46 231.33 565.48 231.33ZM576.451 231H574.097V215.336H576.451V231ZM579.637 231H577.503L583.113 215.336H585.247L579.637 231ZM592.771 231.33C590.769 231.33 589.207 230.802 588.107 229.724C586.985 228.646 586.435 227.128 586.435 225.148V215.336H588.789V225.17C588.789 226.534 589.119 227.546 589.801 228.228C590.483 228.932 591.473 229.262 592.771 229.262C594.047 229.262 595.037 228.932 595.719 228.228C596.401 227.546 596.753 226.534 596.753 225.17V215.336H599.107V225.148C599.107 227.128 598.535 228.646 597.435 229.724C596.313 230.802 594.751 231.33 592.771 231.33ZM613.432 215.336L608.196 222.926L613.74 231H611.012L608.966 227.986C608.152 226.82 607.426 225.742 606.788 224.774C605.776 226.248 605.05 227.326 604.61 227.986L602.52 231H599.88L605.468 222.992L600.188 215.336H602.916L604.808 218.108C604.984 218.416 605.292 218.878 605.754 219.516C605.93 219.802 606.128 220.132 606.392 220.528C606.656 220.924 606.788 221.122 606.832 221.166C606.964 220.946 607.668 219.912 608.9 218.086L610.814 215.336H613.432ZM619.36 215.336H624.948C627.368 215.336 629.26 216.04 630.668 217.426C632.032 218.834 632.714 220.748 632.714 223.168C632.714 225.61 632.032 227.524 630.668 228.91C629.26 230.318 627.368 231 624.948 231H619.36V215.336ZM621.714 228.932H624.926C626.642 228.932 627.94 228.448 628.864 227.436C629.788 226.446 630.25 225.016 630.25 223.168C630.25 221.32 629.788 219.912 628.864 218.9C627.94 217.91 626.642 217.404 624.926 217.404H621.714V228.932ZM644.794 225.412V226.05H636.236C636.324 227.172 636.654 228.008 637.226 228.58C637.776 229.152 638.524 229.416 639.492 229.416C640.922 229.416 641.868 228.8 642.308 227.524H644.53C644.222 228.69 643.606 229.614 642.726 230.274C641.846 230.934 640.746 231.264 639.448 231.264C637.82 231.264 636.5 230.736 635.51 229.636C634.498 228.558 634.014 227.128 634.014 225.324C634.014 223.542 634.498 222.112 635.51 221.012C636.5 219.934 637.798 219.384 639.404 219.384C641.076 219.384 642.396 219.956 643.364 221.078C644.31 222.222 644.794 223.652 644.794 225.412ZM639.404 221.232C638.524 221.232 637.82 221.496 637.27 222.024C636.72 222.552 636.39 223.322 636.258 224.312H642.528C642.418 223.388 642.088 222.662 641.538 222.09C640.988 221.518 640.284 221.232 639.404 221.232ZM650.662 231.286C647.494 231.286 645.844 229.988 645.69 227.392H647.89C647.978 228.184 648.22 228.756 648.66 229.064C649.078 229.394 649.76 229.548 650.684 229.548C652.356 229.548 653.192 229.02 653.192 227.964C653.192 227.524 653.016 227.172 652.664 226.908C652.312 226.666 651.674 226.468 650.772 226.292L649.606 226.072C647.186 225.632 645.998 224.51 645.998 222.684C645.998 221.672 646.372 220.88 647.164 220.286C647.934 219.692 649.012 219.384 650.376 219.384C653.5 219.384 655.084 220.66 655.172 223.19H653.038C652.994 222.442 652.752 221.892 652.334 221.584C651.894 221.276 651.256 221.1 650.376 221.1C649.672 221.1 649.122 221.232 648.748 221.496C648.352 221.76 648.176 222.134 648.176 222.618C648.176 223.058 648.33 223.41 648.682 223.652C649.012 223.894 649.54 224.092 650.288 224.224L651.476 224.422C652.862 224.686 653.874 225.082 654.49 225.61C655.106 226.138 655.414 226.886 655.414 227.81C655.414 228.91 654.996 229.768 654.16 230.384C653.324 231 652.158 231.286 650.662 231.286ZM658.878 217.756C658.614 218.02 658.284 218.152 657.932 218.152C657.558 218.152 657.25 218.02 656.986 217.756C656.722 217.492 656.59 217.184 656.59 216.81C656.59 216.458 656.722 216.128 656.986 215.864C657.25 215.6 657.558 215.468 657.932 215.468C658.284 215.468 658.614 215.6 658.878 215.864C659.142 216.128 659.274 216.458 659.274 216.81C659.274 217.184 659.142 217.492 658.878 217.756ZM659.032 231H656.832V219.648H659.032V231ZM669.7 221.254V219.648H671.812V230.582C671.812 232.144 671.328 233.376 670.404 234.256C669.458 235.136 668.116 235.576 666.4 235.576C664.904 235.576 663.738 235.246 662.858 234.564C661.978 233.904 661.494 232.98 661.384 231.792H663.584C663.76 233.134 664.706 233.794 666.422 233.794C668.534 233.794 669.612 232.738 669.612 230.626V229.372C668.732 230.56 667.522 231.132 665.96 231.132C664.376 231.132 663.1 230.604 662.176 229.526C661.208 228.448 660.746 227.018 660.746 225.258C660.746 223.498 661.208 222.09 662.176 220.99C663.1 219.934 664.354 219.384 665.938 219.384C667.588 219.384 668.842 220.022 669.7 221.254ZM666.356 229.24C667.368 229.24 668.182 228.888 668.776 228.184C669.37 227.48 669.678 226.49 669.678 225.258C669.678 224.026 669.37 223.058 668.776 222.354C668.182 221.65 667.368 221.276 666.356 221.276C665.344 221.276 664.53 221.65 663.936 222.354C663.32 223.08 663.034 224.048 663.034 225.258C663.034 226.49 663.32 227.48 663.936 228.184C664.53 228.888 665.344 229.24 666.356 229.24ZM679.75 219.384C680.982 219.384 681.972 219.736 682.676 220.44C683.38 221.144 683.732 222.112 683.732 223.388V231H681.532V223.696C681.532 222.112 680.718 221.32 679.134 221.32C678.386 221.32 677.726 221.606 677.154 222.156C676.56 222.728 676.274 223.542 676.274 224.598V231H674.074V219.648H676.186V221.342C677.044 220.044 678.232 219.384 679.75 219.384Z" fill="white"/>
</svg>
