<svg width="559" height="134" viewBox="0 0 559 134" fill="none" xmlns="http://www.w3.org/2000/svg">
<rect width="559" height="134" fill="#181818"/>
<path d="M31 94H531" stroke="#3D3D3D" stroke-dasharray="2 2"/>
<path d="M31 118H531" stroke="#3D3D3D" stroke-dasharray="2 2"/>
<g clip-path="url(#clip0_796_60)">
<path d="M202 94H178V118H202V94Z" fill="white"/>
<path d="M194.122 112.75C194.605 113.539 195.234 114.12 196.347 114.12C197.281 114.12 197.878 113.653 197.878 113.007C197.878 112.234 197.265 111.96 196.236 111.51L195.672 111.268C194.045 110.575 192.964 109.706 192.964 107.87C192.964 106.179 194.253 104.891 196.267 104.891C197.701 104.891 198.732 105.39 199.474 106.697L197.718 107.824C197.332 107.131 196.914 106.858 196.267 106.858C195.606 106.858 195.188 107.277 195.188 107.824C195.188 108.501 195.607 108.775 196.574 109.194L197.138 109.435C199.054 110.257 200.136 111.095 200.136 112.978C200.136 115.009 198.541 116.121 196.399 116.121C194.304 116.121 192.951 115.123 192.289 113.815L194.122 112.75ZM186.155 112.946C186.509 113.574 186.832 114.106 187.607 114.106C188.348 114.106 188.815 113.816 188.815 112.688V105.02H191.07V112.719C191.07 115.054 189.701 116.117 187.703 116.117C185.897 116.117 184.851 115.183 184.319 114.057L186.155 112.946Z" fill="black"/>
</g>
<path d="M166.488 100.187V102.758C166.488 104.751 164.799 106.428 162.872 106.428H157.09C155.506 106.428 154.195 107.784 154.195 109.37V114.883C154.195 116.452 155.559 117.375 157.09 117.824C158.922 118.363 160.679 118.46 162.872 117.824C164.329 117.402 165.766 116.553 165.766 114.883V112.677H159.984V111.941H168.661C170.343 111.941 170.971 110.768 171.556 109.006C172.16 107.193 172.134 105.449 171.556 103.123C171.14 101.448 170.346 100.187 168.661 100.187L166.488 100.187ZM163.236 114.147C163.836 114.147 164.322 114.639 164.322 115.247C164.322 115.857 163.836 116.354 163.236 116.354C162.638 116.354 162.15 115.857 162.15 115.247C162.15 114.639 162.638 114.147 163.236 114.147Z" fill="white"/>
<path d="M159.857 94.0002C158.868 94.0049 157.923 94.089 157.091 94.2363C154.641 94.669 154.197 95.5749 154.197 97.2457V99.452H159.986V100.187H152.024C150.342 100.187 148.869 101.198 148.408 103.123C147.876 105.328 147.852 106.704 148.408 109.006C148.819 110.72 149.802 111.941 151.484 111.941H153.475V109.296C153.475 107.385 155.128 105.7 157.091 105.7H162.874C164.483 105.7 165.768 104.374 165.768 102.758V97.2459C165.768 95.6769 164.444 94.4984 162.874 94.2365C161.879 94.071 160.847 93.9957 159.857 94.0002ZM156.727 95.7746C157.325 95.7746 157.813 96.2709 157.813 96.8814C157.813 97.4893 157.325 97.9809 156.727 97.9809C156.127 97.9809 155.641 97.4893 155.641 96.8814C155.64 96.2709 156.127 95.7746 156.727 95.7746Z" fill="white" fill-opacity="0.9"/>
<path d="M220 118C226.627 118 232 112.627 232 106C232 99.3726 226.627 94 220 94C213.373 94 208 99.3726 208 106C208 112.627 213.373 118 220 118Z" fill="white"/>
<path d="M218.663 100.857H220.103L219.696 103.021H220.99C221.699 103.036 222.228 103.194 222.576 103.496C222.931 103.798 223.035 104.372 222.889 105.218L222.19 108.99H220.729L221.397 105.388C221.466 105.01 221.445 104.742 221.334 104.584C221.223 104.425 220.983 104.346 220.614 104.346L219.456 104.335L218.6 108.99H217.16L218.663 100.857Z" fill="black"/>
<path fill-rule="evenodd" clip-rule="evenodd" d="M212.064 103.021H214.861C215.682 103.029 216.277 103.286 216.645 103.791C217.014 104.297 217.136 104.988 217.011 105.864C216.962 106.265 216.854 106.657 216.687 107.043C216.527 107.428 216.305 107.775 216.019 108.085C215.671 108.477 215.299 108.727 214.903 108.832C214.506 108.938 214.096 108.991 213.671 108.991H212.419L212.023 111.143H210.572L212.064 103.021ZM212.659 107.711L213.283 104.324H213.494C213.571 104.324 213.651 104.32 213.734 104.313C214.291 104.305 214.753 104.362 215.122 104.482C215.498 104.603 215.623 105.06 215.498 105.853C215.345 106.797 215.045 107.348 214.6 107.507C214.155 107.658 213.598 107.73 212.931 107.722H212.784C212.743 107.722 212.701 107.718 212.659 107.711Z" fill="black"/>
<path fill-rule="evenodd" clip-rule="evenodd" d="M227.232 103.021H224.436L222.943 111.143H224.394L224.79 108.991H226.043C226.467 108.991 226.877 108.938 227.274 108.832C227.671 108.727 228.043 108.477 228.391 108.085C228.676 107.775 228.898 107.428 229.058 107.043C229.225 106.657 229.333 106.265 229.382 105.864C229.507 104.988 229.385 104.297 229.017 103.791C228.648 103.286 228.053 103.029 227.232 103.021ZM225.654 104.324L225.03 107.711C225.072 107.718 225.114 107.722 225.156 107.722H225.302C225.97 107.73 226.526 107.658 226.971 107.507C227.416 107.348 227.716 106.797 227.869 105.853C227.994 105.06 227.869 104.603 227.493 104.482C227.124 104.362 226.662 104.305 226.105 104.313C226.022 104.32 225.942 104.324 225.865 104.324H225.654Z" fill="black"/>
<path d="M251.487 108.384C252.817 108.384 253.895 107.306 253.895 105.976C253.895 104.646 252.817 103.568 251.487 103.568C250.157 103.568 249.079 104.646 249.079 105.976C249.079 107.306 250.157 108.384 251.487 108.384Z" fill="white"/>
<path d="M251.486 111.497C248.591 111.567 245.704 111.177 242.932 110.341C241.651 109.935 240.457 109.296 239.409 108.455C239.009 108.168 238.676 107.798 238.433 107.37C238.19 106.942 238.042 106.466 238 105.976C238 104.383 239.749 102.823 242.68 101.802C245.526 100.897 248.5 100.459 251.486 100.503C254.432 100.462 257.366 100.893 260.176 101.779C261.41 102.172 262.563 102.78 263.584 103.576C263.977 103.85 264.305 104.207 264.545 104.622C264.785 105.036 264.93 105.498 264.971 105.976C264.971 107.631 263.016 109.308 259.866 110.35C257.148 111.158 254.321 111.545 251.486 111.497ZM251.486 101.655C248.629 101.617 245.784 102.034 243.058 102.89C240.361 103.831 239.152 105.118 239.152 105.973C239.152 106.867 240.452 108.272 243.305 109.248C245.957 110.043 248.718 110.414 251.486 110.345C254.199 110.394 256.903 110.026 259.505 109.257C262.467 108.275 263.816 106.868 263.816 105.976C263.767 105.67 263.655 105.377 263.488 105.116C263.32 104.855 263.101 104.632 262.843 104.46C261.929 103.755 260.898 103.215 259.798 102.867C257.109 102.023 254.303 101.614 251.486 101.655Z" fill="white"/>
<path d="M246.014 117.987C245.565 117.997 245.121 117.888 244.727 117.671C243.348 116.875 242.87 114.581 243.449 111.532C244.087 108.614 245.193 105.819 246.724 103.255C248.16 100.682 249.999 98.3553 252.17 96.3633C253.126 95.4913 254.23 94.7957 255.429 94.3087C255.863 94.1054 256.336 94 256.815 94C257.295 94 257.768 94.1054 258.202 94.3087C259.636 95.1352 260.111 97.6666 259.441 100.916C258.783 103.675 257.706 106.317 256.247 108.75C254.862 111.292 253.081 113.599 250.972 115.582C249.981 116.489 248.83 117.204 247.579 117.691C247.078 117.877 246.549 117.977 246.014 117.987ZM247.722 103.827C246.262 106.282 245.202 108.955 244.582 111.744C244.049 114.552 244.561 116.24 245.304 116.67C246.075 117.116 247.946 116.693 250.217 114.709C252.23 112.808 253.93 110.601 255.252 108.168C256.65 105.842 257.683 103.316 258.316 100.678C258.946 97.6194 258.402 95.7469 257.629 95.3018C257.34 95.1909 257.03 95.1412 256.721 95.156C256.411 95.1707 256.108 95.2496 255.83 95.3876C254.762 95.8281 253.781 96.4535 252.931 97.2351C250.856 99.1431 249.1 101.37 247.729 103.833L247.722 103.827Z" fill="white"/>
<path d="M256.955 118C255.65 118 253.992 117.21 252.266 115.725C250.057 113.715 248.188 111.361 246.73 108.754C245.218 106.225 244.121 103.47 243.48 100.594C243.202 99.329 243.15 98.0245 243.328 96.7412C243.369 96.2652 243.514 95.804 243.753 95.39C243.991 94.9761 244.318 94.6196 244.709 94.3456C246.142 93.5162 248.572 94.3687 251.052 96.5707C253.114 98.5186 254.865 100.771 256.244 103.25C257.755 105.72 258.864 108.415 259.529 111.233C259.819 112.544 259.864 113.898 259.661 115.226C259.613 115.716 259.459 116.19 259.211 116.614C258.962 117.039 258.625 117.405 258.222 117.687C257.835 117.902 257.398 118.01 256.955 118ZM247.727 108.174C249.125 110.666 250.911 112.919 253.017 114.849C255.184 116.713 256.902 117.113 257.641 116.679C258.412 116.231 258.98 114.403 258.394 111.445C257.753 108.754 256.689 106.182 255.243 103.824C253.927 101.452 252.256 99.2947 250.287 97.4281C247.953 95.3551 246.059 94.8918 245.287 95.3387C245.047 95.5342 244.849 95.7773 244.708 96.0529C244.566 96.3284 244.483 96.6304 244.464 96.9397C244.31 98.0841 244.36 99.2466 244.611 100.374C245.228 103.124 246.28 105.758 247.728 108.176L247.727 108.174Z" fill="white"/>
<path d="M381.325 105.027C381.228 105.02 381.116 105.015 381.002 105.015C380.43 105.015 379.882 105.121 379.378 105.315L379.409 105.305C379.261 105.364 379.025 105.364 379.005 105.552C379.086 105.63 379.098 105.759 379.167 105.868C379.305 106.102 379.475 106.3 379.674 106.466L379.678 106.47C379.885 106.632 380.092 106.789 380.309 106.927C380.694 107.164 381.13 107.305 381.506 107.542C381.72 107.681 381.939 107.857 382.157 108.005C382.264 108.078 382.334 108.212 382.473 108.259V108.23C382.405 108.141 382.384 108.012 382.318 107.914C382.218 107.814 382.12 107.726 382.022 107.629C381.729 107.244 381.389 106.916 381.008 106.641L380.994 106.632C380.678 106.416 379.986 106.115 379.856 105.752L379.837 105.73C380.095 105.694 380.325 105.639 380.546 105.566L380.517 105.574C380.853 105.486 381.161 105.504 381.507 105.418C381.664 105.378 381.822 105.329 381.981 105.28V105.191C381.803 105.014 381.671 104.772 381.487 104.607C381.004 104.181 380.47 103.781 379.908 103.422L379.855 103.39C379.545 103.192 379.151 103.064 378.825 102.896C378.707 102.837 378.509 102.808 378.441 102.708C378.287 102.49 378.151 102.239 378.043 101.974L378.034 101.948C377.743 101.385 377.474 100.812 377.225 100.229C377.054 99.7763 376.885 99.4049 376.695 99.0453L376.722 99.1009C375.792 97.5408 374.497 96.2871 372.951 95.4319L372.9 95.4059C372.535 95.225 372.11 95.0842 371.664 95.005L371.635 95.0002C371.388 94.9884 371.142 94.9707 370.896 94.96C370.723 94.8488 370.574 94.7353 370.434 94.6099L370.438 94.6135C369.876 94.2586 368.422 93.4898 368.008 94.507C367.742 95.1481 368.404 95.7809 368.632 96.1061C368.814 96.3226 368.98 96.565 369.123 96.8217L369.134 96.8454C369.204 97.0169 369.223 97.1931 369.293 97.3717C369.464 97.9063 369.638 98.3451 369.836 98.7697L369.805 98.6964C369.922 98.9318 370.044 99.1317 370.18 99.3209L370.171 99.3067C370.25 99.4144 370.386 99.4652 370.418 99.6426C370.316 99.8567 370.237 100.105 370.193 100.364L370.191 100.381C370.063 100.773 369.988 101.226 369.988 101.696C369.988 102.43 370.169 103.122 370.489 103.73L370.477 103.707C370.635 103.951 371.012 104.496 371.515 104.287C371.959 104.11 371.861 103.548 371.989 103.054C372.018 102.935 371.999 102.857 372.059 102.777V102.799C372.198 103.077 372.337 103.342 372.464 103.62C372.821 104.135 373.246 104.572 373.731 104.933L373.746 104.944C373.983 105.121 374.171 105.429 374.466 105.538V105.508H374.444C374.377 105.435 374.302 105.37 374.22 105.314L374.216 105.312C374.032 105.132 373.862 104.938 373.708 104.733L373.699 104.72C373.313 104.2 372.947 103.611 372.628 102.992L372.594 102.92C372.432 102.61 372.296 102.275 372.166 101.969C372.107 101.851 372.107 101.673 372.007 101.614C371.832 101.811 371.675 102.029 371.544 102.265L371.534 102.284C371.383 102.725 371.284 103.235 371.258 103.763V103.776C371.217 103.787 371.237 103.776 371.217 103.798C370.902 103.721 370.793 103.393 370.674 103.118C370.514 102.685 370.42 102.183 370.42 101.662C370.42 101.241 370.48 100.834 370.594 100.449L370.587 100.48C370.657 100.273 370.952 99.6202 370.834 99.4214C370.773 99.2334 370.577 99.1258 370.469 98.9732C370.34 98.791 370.221 98.584 370.123 98.3652L370.114 98.3416C369.877 97.7892 369.759 97.1765 369.502 96.6242C369.347 96.3356 369.184 96.0872 369.001 95.8554L369.009 95.866C368.814 95.6401 368.634 95.3882 368.478 95.1209L368.465 95.0972C368.417 94.9896 368.347 94.811 368.425 94.6927C368.439 94.6241 368.493 94.5709 368.563 94.5602C368.693 94.4538 369.06 94.5922 369.188 94.6513C369.563 94.7932 369.886 94.96 370.185 95.1564L370.166 95.1445C370.304 95.2415 370.454 95.4296 370.632 95.4781H370.839C371.155 95.5479 371.512 95.4994 371.808 95.5857C372.35 95.769 372.82 95.9985 373.254 96.28L373.229 96.2646C374.535 97.1079 375.581 98.2481 376.288 99.5953L376.312 99.6438C376.43 99.8709 376.482 100.08 376.589 100.317C376.796 100.804 377.052 101.297 377.262 101.768C377.462 102.274 377.699 102.712 377.98 103.115L377.966 103.094C378.114 103.301 378.708 103.409 378.974 103.516C379.254 103.614 379.479 103.708 379.697 103.813L379.653 103.794C379.992 104.001 380.324 104.238 380.643 104.465C380.805 104.577 381.298 104.824 381.328 105.023L381.325 105.027ZM367.458 113.676C367.458 113.694 367.46 113.714 367.46 113.734C367.46 114.394 367.165 114.984 366.699 115.382L366.696 115.384C366.185 115.801 365.526 116.054 364.808 116.054C364.752 116.054 364.697 116.052 364.642 116.049H364.649C363.775 116.037 362.971 115.753 362.312 115.279L362.324 115.287L362.674 114.583C363.182 114.867 363.785 115.044 364.426 115.068H364.433C364.465 115.071 364.502 115.072 364.539 115.072C364.932 115.072 365.298 114.949 365.597 114.74L365.591 114.743C365.862 114.537 366.034 114.216 366.034 113.854C366.034 113.847 366.034 113.841 366.034 113.834V113.835C366.034 113.347 365.695 112.933 365.076 112.586C364.503 112.271 363.358 111.615 363.358 111.615C362.792 111.265 362.422 110.648 362.422 109.946C362.422 109.921 362.422 109.896 362.423 109.871V109.875C362.422 109.852 362.422 109.826 362.422 109.8C362.422 109.191 362.691 108.645 363.115 108.273L363.118 108.271C363.57 107.888 364.16 107.655 364.804 107.655C364.846 107.655 364.886 107.656 364.926 107.657H364.92C364.931 107.657 364.944 107.657 364.957 107.657C365.713 107.657 366.416 107.883 367.003 108.272L366.989 108.264L366.674 108.968C366.212 108.759 365.672 108.634 365.105 108.628H365.102C365.074 108.626 365.042 108.625 365.009 108.625C364.678 108.625 364.373 108.741 364.134 108.935L364.136 108.932C363.913 109.118 363.771 109.396 363.769 109.707C363.769 110.192 364.115 110.608 364.753 110.963C365.334 111.281 366.508 111.953 366.508 111.953C367.085 112.292 367.467 112.91 367.467 113.617C367.467 113.638 367.467 113.661 367.466 113.682V113.679L367.458 113.676ZM369.909 114.304C369.586 113.66 369.398 112.9 369.398 112.097C369.398 111.971 369.403 111.845 369.412 111.722L369.411 111.739C369.411 109.68 370.037 108.65 371.288 108.649C371.319 108.647 371.356 108.646 371.394 108.646C371.955 108.646 372.449 108.939 372.729 109.382L372.732 109.388C373.053 110.029 373.241 110.786 373.241 111.585C373.241 111.708 373.236 111.83 373.228 111.951L373.229 111.934C373.229 114.009 372.604 115.048 371.352 115.049C371.32 115.052 371.284 115.053 371.247 115.053C370.685 115.053 370.191 114.76 369.91 114.317L369.907 114.311L369.909 114.304ZM374.775 116.14L373.273 115.401C373.41 115.286 373.533 115.165 373.647 115.035L373.65 115.032C374.257 114.213 374.621 113.183 374.621 112.069C374.621 111.94 374.617 111.812 374.607 111.686L374.608 111.702C374.608 108.998 373.547 107.644 371.423 107.643C371.376 107.641 371.32 107.639 371.265 107.639C370.357 107.639 369.543 108.038 368.988 108.671L368.985 108.674C368.381 109.493 368.018 110.522 368.018 111.636C368.018 111.761 368.023 111.886 368.032 112.009L368.031 111.992C368.02 112.111 368.014 112.251 368.014 112.392C368.014 113.426 368.338 114.384 368.89 115.17L368.879 115.155C369.41 115.72 370.163 116.073 370.997 116.073C371.075 116.073 371.152 116.069 371.228 116.063L371.217 116.064C371.228 116.064 371.242 116.064 371.255 116.064C371.623 116.064 371.979 116.011 372.316 115.913L372.29 115.92L374.249 117.061L374.781 116.142L374.775 116.14ZM379.681 115.94H375.793V107.767H377.102V114.936H379.681V115.94ZM361.465 109.91C361.126 112.375 360.349 114.6 359.212 116.593L359.259 116.502C358.804 117.378 357.943 117.989 356.932 118.087L356.92 118.088C356.614 118.071 356.329 117.998 356.07 117.879L356.084 117.885V117.155C356.246 117.18 356.433 117.194 356.623 117.194C356.634 117.194 356.644 117.194 356.656 117.194C356.675 117.195 356.695 117.195 356.717 117.195C357.058 117.195 357.372 117.071 357.613 116.864L357.611 116.865C357.871 116.651 358.038 116.332 358.047 115.972C357.984 115.454 357.865 114.981 357.693 114.535L357.708 114.575L356.209 109.91H357.554L358.629 113.398C358.821 113.89 358.932 114.46 358.932 115.055C358.932 115.057 358.932 115.058 358.932 115.058C359.502 113.565 359.935 111.824 360.155 110.018L360.165 109.909L361.465 109.91ZM355.528 115.94H354.158C354.12 113.763 353.987 111.59 353.76 109.422H353.748L351.664 115.94H350.622L348.552 109.422H348.538C348.376 111.591 348.28 113.764 348.249 115.94H347C347.081 113.034 347.283 110.31 347.606 107.766H349.305L351.278 113.773H351.29L353.281 107.766H354.899C355.257 110.744 355.467 113.469 355.531 115.94H355.528ZM371.247 96.4397C371.245 96.4397 371.241 96.4397 371.237 96.4397C371.097 96.4397 370.961 96.4574 370.831 96.4905L370.842 96.4882V96.5071H370.863C370.964 96.6585 371.068 96.7898 371.181 96.9128L371.178 96.9104C371.258 97.0689 371.326 97.2262 371.405 97.3835L371.426 97.3611C371.554 97.2593 371.636 97.1032 371.636 96.9282C371.636 96.9069 371.635 96.8868 371.632 96.8655V96.8678C371.573 96.7981 371.565 96.7294 371.514 96.6608C371.455 96.5615 371.329 96.513 371.248 96.4349L371.247 96.4397Z" fill="white"/>
<path d="M411.026 108.535C410.77 108.238 410.333 108.32 409.994 108.387C409.181 108.532 408.297 108.7 407.509 108.362C408.916 106.143 410.022 103.72 410.641 101.162C410.866 100.19 411.04 99.1958 411.007 98.195C410.982 97.6348 410.905 97.0384 410.562 96.5742C409.715 95.4571 408.487 94.643 407.133 94.2792C405.442 93.8204 403.628 93.9569 401.964 94.4712C401.827 94.499 401.691 94.4371 401.557 94.42C400.047 94.1138 398.382 94.2343 397.073 95.1082C395.502 94.5427 393.813 94.2013 392.14 94.3763C390.895 94.5054 389.646 95.0837 388.932 96.1432C388.03 97.4652 387.907 99.1531 388.051 100.702C388.341 102.76 388.843 104.785 389.481 106.76C389.901 107.991 390.364 109.232 391.112 110.307C391.492 110.836 391.997 111.368 392.676 111.451C393.28 111.525 393.826 111.15 394.197 110.706C394.837 109.94 395.495 109.188 396.178 108.46C396.624 108.679 397.108 108.805 397.604 108.842C397.336 109.16 397.115 109.575 396.688 109.7C396.113 109.922 395.44 109.892 394.933 110.275C394.641 110.484 394.627 110.94 394.889 111.18C395.364 111.641 396.064 111.74 396.696 111.794C397.591 111.862 398.496 111.561 399.175 110.974C399.171 112.398 399.177 113.825 399.337 115.241C399.417 116.07 399.775 116.896 400.405 117.454C401 117.973 401.847 118.08 402.601 117.949C403.342 117.808 404.103 117.586 404.681 117.081C405.295 116.539 405.558 115.72 405.68 114.935C405.9 113.527 406.068 112.114 406.228 110.7C407.81 110.967 409.601 110.664 410.783 109.508C411.036 109.27 411.276 108.858 411.026 108.535ZM407.515 95.1509C408.464 95.5115 409.308 96.1378 409.942 96.9306C410.244 97.3094 410.282 97.8183 410.302 98.2835C410.316 99.3932 410.092 100.489 409.807 101.556C409.261 103.531 408.433 105.424 407.393 107.186C407.291 107.36 407.179 107.528 407.055 107.687C407.045 107.639 407.026 107.541 407.016 107.492C407.146 107.152 407.334 106.832 407.408 106.472C407.668 105.455 407.449 104.408 407.355 103.385C407.257 102.419 407.586 101.479 407.578 100.516C407.615 100.044 407.428 99.5981 407.247 99.1745C406.591 97.7074 405.547 96.4024 404.208 95.5062C403.882 95.2821 403.517 95.1253 403.191 94.9001C404.615 94.595 406.142 94.6334 407.514 95.1498L407.515 95.1509ZM406.647 103.387C406.731 104.53 407.062 105.757 406.524 106.841C405.801 105.404 404.868 104.031 404.542 102.431C404.45 101.922 404.427 101.277 404.879 100.923C405.453 100.516 406.203 100.607 406.867 100.648C406.838 101.565 406.557 102.464 406.648 103.387H406.647ZM393.734 110.157C393.474 110.462 393.124 110.826 392.683 110.735C392.166 110.586 391.838 110.114 391.55 109.691C390.772 108.447 390.303 107.041 389.873 105.647C389.392 103.996 388.987 102.319 388.753 100.614C388.637 99.3164 388.709 97.925 389.373 96.7695C389.87 95.8946 390.797 95.3365 391.771 95.1541C393.331 94.8543 394.931 95.1722 396.428 95.6289C395.767 96.3544 395.253 97.2091 394.953 98.1448C394.545 99.3943 394.358 100.724 394.456 102.037C394.513 102.962 394.488 103.892 394.359 104.809C394.197 106.007 394.678 107.24 395.568 108.049C394.962 108.757 394.319 109.432 393.733 110.158L393.734 110.157ZM395.099 105.864C394.947 105.186 395.146 104.503 395.169 103.823C395.221 103.054 395.167 102.284 395.152 101.514C395.871 101.049 396.712 100.685 397.583 100.735C398.035 100.755 398.451 101.074 398.56 101.519C398.955 103.095 399.078 104.849 398.32 106.341C398.055 106.918 397.84 107.514 397.656 108.119C396.395 108.132 395.322 107.065 395.099 105.864ZM399.024 110.083C398.232 111.156 396.648 111.36 395.503 110.777C396.067 110.515 396.728 110.536 397.273 110.213C397.8 109.93 398.009 109.305 398.502 108.984C399.039 108.909 399.43 109.706 399.025 110.082L399.024 110.083ZM405.814 108.831C405.513 109.315 405.619 109.906 405.545 110.444C405.372 111.952 405.203 113.461 404.957 114.959C404.841 115.677 404.536 116.44 403.858 116.798C403.164 117.151 402.357 117.373 401.576 117.252C400.834 117.122 400.367 116.431 400.157 115.757C400.003 115.193 399.987 114.603 399.943 114.022C399.869 112.618 399.868 111.212 399.904 109.808C399.935 109.26 399.653 108.689 399.163 108.422C398.927 108.289 398.649 108.27 398.385 108.249C398.593 107.217 399.221 106.326 399.437 105.296C399.716 104.021 399.561 102.693 399.276 101.434C399.136 100.806 398.658 100.25 398.022 100.097C397.042 99.8509 396.054 100.234 395.178 100.644C395.289 99.2203 395.67 97.7628 396.542 96.6073C397.183 95.7473 398.178 95.1733 399.239 95.0356C400.991 94.8126 402.831 95.2949 404.223 96.3907C405.373 97.2998 406.282 98.5311 406.772 99.916C405.958 99.8872 405.035 99.8541 404.377 100.42C403.779 100.923 403.702 101.782 403.837 102.503C404.148 104.219 405.161 105.678 405.908 107.221C406.106 107.582 406.373 107.898 406.627 108.222C406.325 108.375 405.988 108.521 405.816 108.832L405.814 108.831ZM407.91 110.044C407.372 110.108 406.813 110.127 406.294 109.949C406.296 109.655 406.28 109.308 406.516 109.089C406.703 108.951 406.968 108.824 407.184 108.975C408.102 109.458 409.169 109.222 410.145 109.104C409.548 109.684 408.723 109.955 407.91 110.044ZM405.091 101.138C404.9 101.295 405.106 101.529 405.27 101.603C405.668 101.837 406.213 101.51 406.226 101.056C405.866 100.888 405.416 100.905 405.091 101.138ZM398.046 101.863C398.216 101.767 398.395 101.504 398.199 101.345C397.919 101.117 397.513 101.074 397.172 101.165C397.063 101.204 396.947 101.279 396.97 101.413C397.049 101.87 397.66 102.147 398.045 101.863H398.046Z" fill="white"/>
<path d="M311 102C312.333 96.6667 315.667 94 321 94C329 94 330 100 334 101C336.667 101.667 339 100.667 341 98C339.667 103.333 336.333 106 331 106C323 106 322 100 318 99C315.333 98.3333 313 99.3333 311 102ZM301 114C302.333 108.667 305.667 106 311 106C319 106 320 112 324 113C326.667 113.667 329 112.667 331 110C329.667 115.333 326.333 118 321 118C313 118 312 112 308 111C305.333 110.333 303 111.333 301 114Z" fill="white"/>
<g clip-path="url(#clip1_796_60)">
<path fill-rule="evenodd" clip-rule="evenodd" d="M271 106C271 99.3726 276.373 94 283 94C289.627 94 295 99.3726 295 106C295 110.139 292.904 113.789 289.716 115.946L278.851 100.735C278.649 100.452 278.287 100.332 277.956 100.438C277.625 100.544 277.4 100.852 277.4 101.2V113.2H279V103.696L288.328 116.755C286.723 117.552 284.914 118 283 118C276.373 118 271 112.627 271 106ZM287 110V100.4H288.6V110H287Z" fill="white"/>
</g>
<path d="M52.1895 67V40.2256H67.0518C70.3669 40.2256 73.1686 40.7389 75.457 41.7656C77.7578 42.7923 79.5081 44.2952 80.708 46.2744C81.9079 48.2412 82.5078 50.641 82.5078 53.4736V53.5107C82.5078 56.3929 81.9079 58.8421 80.708 60.8584C79.5081 62.8623 77.7578 64.39 75.457 65.4414C73.1562 66.4805 70.3545 67 67.0518 67H52.1895ZM59.3145 61.582H66.5879C68.4434 61.582 70.0143 61.2913 71.3008 60.71C72.5872 60.1162 73.5645 59.2318 74.2324 58.0566C74.9128 56.8691 75.2529 55.3848 75.2529 53.6035V53.5664C75.2529 51.847 74.9251 50.3997 74.2695 49.2246C73.6263 48.0495 72.6615 47.1589 71.375 46.5527C70.0885 45.9466 68.4928 45.6436 66.5879 45.6436H59.3145V61.582ZM86.0703 67V40.2256H110.711V45.458H93.1953V51.0615H109.505V55.8301H93.1953V61.7676H110.711V67H86.0703ZM118.3 67V62.1016H131.548C132.946 62.1016 134.022 61.8232 134.776 61.2666C135.531 60.71 135.908 59.8997 135.908 58.8359V58.8174C135.908 58.0999 135.729 57.5 135.37 57.0176C135.024 56.5352 134.504 56.1764 133.812 55.9414C133.131 55.694 132.29 55.5703 131.288 55.5703H118.3V51.2471H130.472C131.869 51.2471 132.946 50.9811 133.7 50.4492C134.455 49.9049 134.832 49.138 134.832 48.1484V48.1113C134.832 47.1465 134.498 46.4105 133.83 45.9033C133.174 45.3838 132.259 45.124 131.084 45.124H118.3V40.2256H133.051C134.882 40.2256 136.452 40.4915 137.764 41.0234C139.087 41.5553 140.102 42.3161 140.807 43.3057C141.512 44.2952 141.864 45.4766 141.864 46.8496V46.8867C141.864 47.9258 141.635 48.8597 141.178 49.6885C140.732 50.5049 140.095 51.1852 139.267 51.7295C138.45 52.2738 137.485 52.6449 136.372 52.8428V52.9355C137.77 53.084 138.97 53.4489 139.972 54.0303C140.986 54.5993 141.765 55.3477 142.31 56.2754C142.866 57.2031 143.145 58.2607 143.145 59.4482V59.4854C143.145 61.0563 142.749 62.4046 141.957 63.5303C141.165 64.6559 140.027 65.5156 138.543 66.1094C137.071 66.7031 135.296 67 133.218 67H118.3ZM114.719 67V40.2256H121.77V67H114.719ZM162.237 67.5195C158.848 67.5195 155.892 66.9567 153.368 65.8311C150.857 64.693 148.915 63.085 147.542 61.0068C146.169 58.9163 145.482 56.4548 145.482 53.6221V53.585C145.482 50.7523 146.169 48.2969 147.542 46.2188C148.927 44.1406 150.876 42.5326 153.387 41.3945C155.898 40.2565 158.848 39.6875 162.237 39.6875C165.639 39.6875 168.595 40.2565 171.106 41.3945C173.618 42.5326 175.56 44.1406 176.933 46.2188C178.318 48.2969 179.011 50.7523 179.011 53.585V53.6221C179.011 56.4548 178.318 58.9163 176.933 61.0068C175.56 63.085 173.618 64.693 171.106 65.8311C168.595 66.9567 165.639 67.5195 162.237 67.5195ZM162.237 61.9717C164.179 61.9717 165.862 61.6315 167.284 60.9512C168.707 60.2708 169.808 59.306 170.587 58.0566C171.366 56.7949 171.756 55.3167 171.756 53.6221V53.585C171.756 51.8779 171.36 50.4059 170.568 49.1689C169.789 47.9196 168.688 46.9548 167.266 46.2744C165.843 45.5941 164.167 45.2539 162.237 45.2539C160.308 45.2539 158.632 45.5941 157.209 46.2744C155.786 46.9424 154.686 47.901 153.906 49.1504C153.127 50.3997 152.737 51.8779 152.737 53.585V53.6221C152.737 55.3291 153.127 56.8073 153.906 58.0566C154.686 59.306 155.786 60.2708 157.209 60.9512C158.632 61.6315 160.308 61.9717 162.237 61.9717ZM193.854 67.5381C191.999 67.5381 190.298 67.3154 188.752 66.8701C187.206 66.4124 185.857 65.7383 184.707 64.8477C183.557 63.957 182.654 62.8685 181.998 61.582C181.355 60.2832 181.015 58.7865 180.978 57.0918L180.959 56.9248H187.843L187.861 57.0732C187.923 58.1247 188.214 59.0215 188.733 59.7637C189.253 60.4935 189.946 61.0501 190.812 61.4336C191.677 61.8047 192.661 61.9902 193.762 61.9902C195.63 61.9902 197.046 61.514 198.011 60.5615C198.976 59.609 199.458 58.2793 199.458 56.5723V40.2256H206.583V56.6465C206.583 58.8112 206.101 60.71 205.136 62.3428C204.183 63.9756 202.761 65.2497 200.868 66.165C198.976 67.0804 196.638 67.5381 193.854 67.5381ZM221.965 67V57.5L209.533 40.2256H217.419L225.453 51.748H225.583L233.617 40.2256H241.503L229.071 57.5V67H221.965ZM257.089 67.5195C253.7 67.5195 250.743 66.9567 248.22 65.8311C245.709 64.693 243.767 63.085 242.394 61.0068C241.021 58.9163 240.334 56.4548 240.334 53.6221V53.585C240.334 50.7523 241.021 48.2969 242.394 46.2188C243.779 44.1406 245.727 42.5326 248.238 41.3945C250.749 40.2565 253.7 39.6875 257.089 39.6875C260.491 39.6875 263.447 40.2565 265.958 41.3945C268.469 42.5326 270.411 44.1406 271.784 46.2188C273.17 48.2969 273.862 50.7523 273.862 53.585V53.6221C273.862 56.4548 273.17 58.9163 271.784 61.0068C270.411 63.085 268.469 64.693 265.958 65.8311C263.447 66.9567 260.491 67.5195 257.089 67.5195ZM257.089 61.9717C259.031 61.9717 260.713 61.6315 262.136 60.9512C263.558 60.2708 264.659 59.306 265.438 58.0566C266.218 56.7949 266.607 55.3167 266.607 53.6221V53.585C266.607 51.8779 266.212 50.4059 265.42 49.1689C264.641 47.9196 263.54 46.9548 262.117 46.2744C260.695 45.5941 259.019 45.2539 257.089 45.2539C255.159 45.2539 253.483 45.5941 252.061 46.2744C250.638 46.9424 249.537 47.901 248.758 49.1504C247.979 50.3997 247.589 51.8779 247.589 53.585V53.6221C247.589 55.3291 247.979 56.8073 248.758 58.0566C249.537 59.306 250.638 60.2708 252.061 60.9512C253.483 61.6315 255.159 61.9717 257.089 61.9717ZM284.865 67V45.6807H274.308V40.2256H302.511V45.6807H291.972V67H284.865ZM305.572 67V40.2256H312.697V67H305.572ZM326.502 67V40.2256H334.944L344.537 59.2812H344.648L354.241 40.2256H362.684V67H356.189V49.2061H353.499L358.546 43.8066L346.986 67H342.181L330.64 43.8066L335.687 49.2061H332.996V67H326.502ZM367.062 67V40.2256H374.188V67H367.062ZM392.649 67.5381C389.656 67.5381 387.083 67.2165 384.931 66.5732C382.778 65.93 381.077 64.9899 379.828 63.7529C378.591 62.516 377.849 61.013 377.602 59.2441L377.583 58.9844H384.448L384.485 59.1514C384.671 59.8564 385.104 60.4564 385.784 60.9512C386.477 61.4336 387.411 61.8047 388.586 62.0645C389.761 62.3118 391.171 62.4355 392.816 62.4355C394.202 62.4355 395.389 62.3057 396.379 62.0459C397.368 61.7861 398.123 61.415 398.643 60.9326C399.174 60.4378 399.44 59.8564 399.44 59.1885V59.1699C399.44 58.3164 399.088 57.6855 398.383 57.2773C397.678 56.8568 396.447 56.5475 394.69 56.3496L388.066 55.8301C384.764 55.5085 382.296 54.723 380.663 53.4736C379.03 52.2119 378.214 50.4616 378.214 48.2227V48.1855C378.214 46.429 378.752 44.9199 379.828 43.6582C380.917 42.3841 382.463 41.4069 384.467 40.7266C386.483 40.0339 388.877 39.6875 391.647 39.6875C394.455 39.6875 396.874 40.0091 398.902 40.6523C400.943 41.2956 402.551 42.2295 403.727 43.4541C404.902 44.6663 405.613 46.1322 405.86 47.8516L405.916 48.1484H399.051L398.995 47.9814C398.81 47.2764 398.414 46.6888 397.808 46.2188C397.214 45.7363 396.404 45.3776 395.377 45.1426C394.363 44.9076 393.132 44.79 391.685 44.79C390.299 44.79 389.13 44.9137 388.178 45.1611C387.238 45.3962 386.526 45.7425 386.044 46.2002C385.562 46.6455 385.32 47.1774 385.32 47.7959V47.8145C385.32 48.6185 385.685 49.2308 386.415 49.6514C387.145 50.0719 388.351 50.3688 390.033 50.542L396.75 51.0801C398.977 51.3027 400.813 51.7233 402.261 52.3418C403.708 52.9603 404.784 53.7952 405.489 54.8467C406.194 55.8857 406.547 57.1598 406.547 58.6689V58.6875C406.547 60.543 405.996 62.1325 404.896 63.4561C403.807 64.7673 402.224 65.7754 400.146 66.4805C398.08 67.1855 395.581 67.5381 392.649 67.5381ZM409.924 67V40.2256H417.049V50.6904H433.358V40.2256H440.483V67H433.358V56.1641H417.049V67H409.924ZM444.881 67V40.2256H461.97C464.308 40.2256 466.281 40.5719 467.889 41.2646C469.497 41.945 470.715 42.9284 471.544 44.2148C472.373 45.4889 472.787 47.029 472.787 48.835V48.8721C472.787 50.777 472.299 52.4098 471.321 53.7705C470.344 55.1188 468.946 56.096 467.128 56.7021L473.789 67H465.736L460.077 57.8154C460.028 57.8154 459.972 57.8154 459.91 57.8154C459.861 57.8154 459.805 57.8154 459.743 57.8154H452.006V67H444.881ZM452.006 52.9912H461.32C462.681 52.9912 463.739 52.6572 464.493 51.9893C465.248 51.3089 465.625 50.3688 465.625 49.1689V49.1318C465.625 47.9443 465.235 47.0166 464.456 46.3486C463.677 45.6683 462.613 45.3281 461.265 45.3281H452.006V52.9912ZM474.977 67L487.315 40.2256H494.032V45.8291H491.713L482.491 67H474.977ZM481.396 60.9141L483.438 56.127H499.933L501.955 60.9141H481.396ZM501.064 67L491.843 45.8291V40.2256H496.24L508.579 67H501.064Z" fill="white"/>
<defs>
<clipPath id="clip0_796_60">
<rect width="24" height="24" fill="white" transform="translate(178 94)"/>
</clipPath>
<clipPath id="clip1_796_60">
<rect width="24" height="24" fill="white" transform="translate(271 94)"/>
</clipPath>
</defs>
</svg>
